<?xml version="1.0" encoding="UTF-8"?>
<svg xmlns="http://www.w3.org/2000/svg" viewBox="0 0 135.21 151.02">
  <g>
    <path d="m74.15,71.23l-8.6,19.75-5.34,12.27c-.16-.02-.32-.04-.47-.06l5.48-12.16h.01l8.92-19.8Z"/>
    <polygon points="132.06 9.85 100.74 88.5 97.79 86.59 86.32 79.17 74.75 71.68 65.83 91.48 65.82 91.48 60.34 103.64 38.98 151.02 51.46 101.5 54.29 90.28 63.91 52.12 90.58 68.96 91.26 69.39 102.74 52.64 132.06 9.85"/>
    <polygon points="135.21 1.8 106.16 105.14 89.25 91.97 82.01 86.33 73.59 98.76 41.2 146.56 61.8 99.24 67.14 86.97 75.74 67.22 87.31 74.71 98.78 82.13 101.73 84.04 135.21 1.8"/>
    <path d="m84.92,30.29v.19c0,4.26-2.6,7.92-6.3,9.48-3.83-2.72-8.36-4.5-13.28-5.02-.99-.12-2-.17-3.03-.17-15.58,0-28.21,12.62-28.21,28.2,0,4.12.89,8.04,2.49,11.57,2.2,4.92,5.79,9.09,10.26,12.02-.64,3.87-3.46,7.01-7.14,8.14-5.06-4.1-9.08-9.42-11.62-15.52-1.94-4.66-3.01-9.78-3.01-15.14,0-21.78,17.66-39.43,39.44-39.43.54,0,1.08.01,1.62.03,6.86.28,13.26,2.3,18.78,5.65Z"/>
    <rect x="64.33" width="9.1" height="15.62" rx="3.91" ry="3.91"/>
    <rect x="91.16" y="8.99" width="9.1" height="15.62" rx="3.91" ry="3.91" transform="translate(25.61 -50.5) rotate(33.88)"/>
    <rect x="36.65" y="4.16" width="9.1" height="15.62" rx="3.91" ry="3.91" transform="translate(-1.52 15.9) rotate(-21.46)"/>
    <rect x="13.45" y="24.6" width="9.1" height="15.62" rx="3.91" ry="3.91" transform="translate(-18.94 29.28) rotate(-56.12)"/>
    <rect x="3.26" y="53.03" width="9.1" height="15.62" rx="3.91" ry="3.91" transform="translate(-53.03 68.65) rotate(-90)"/>
    <rect x="7.54" y="79.93" width="9.1" height="15.62" rx="3.91" ry="3.91" transform="translate(-57.85 142.09) rotate(-120)"/>
  </g>
</svg>